# xmcd CD database file generated by Grip 2.95
# 
# Track frame offsets:
#       150
#       19720
#       46845
#       60467
#       73450
#       119442
#       143002
#       162675
#       174782
#       187067
#       206655
#       230080
# 
# Disc length: 3477 seconds
# 
# Revision: 3
# Processed by: cddbd v1.4b42PL1 Copyright (c) Steve Scherf et al.
# Submitted via: Grip 2.95
# 
DISCID=b00d930c
DTITLE=John Lee Hooker - The Ultimate Collection
DYEAR=1900
DGENRE=
TTITLE0=Shake it up, Baby
TTITLE1=Five long years
TTITLE2=One bourbon, one scotch, one beer
TTITLE3=M. Lucky
TTITLE4=Never get out of these blues alive
TTITLE5=(i got) a good'un
TTITLE6=I don't want no trouble
TTITLE7=Boom, boom, boom, boom
TTITLE8=I'm in the mood
TTITLE9=You're
TTITLE10=Lonesome mood
TTITLE11=Let's go out tonight
EXTD=
EXTT0=
EXTT1=
EXTT2=
EXTT3=
EXTT4=
EXTT5=
EXTT6=
EXTT7=
EXTT8=
EXTT9=
EXTT10=
EXTT11=
PLAYORDER=
